<?xml version="1.0" encoding="UTF-8" standalone="no"?>
<!-- Created with Inkscape (http://www.inkscape.org/) -->

<svg
   xmlns:dc="http://purl.org/dc/elements/1.1/"
   xmlns:cc="http://creativecommons.org/ns#"
   xmlns:rdf="http://www.w3.org/1999/02/22-rdf-syntax-ns#"
   xmlns:svg="http://www.w3.org/2000/svg"
   xmlns="http://www.w3.org/2000/svg"
   xmlns:sodipodi="http://sodipodi.sourceforge.net/DTD/sodipodi-0.dtd"
   xmlns:inkscape="http://www.inkscape.org/namespaces/inkscape"
   width="210mm"
   height="297mm"
   viewBox="0 0 744.09448819 1052.3622047"
   id="svg4438"
   version="1.1"
   inkscape:version="0.91 r13725"
   sodipodi:docname="case_4_k_star.svg">
  <defs
     id="defs4440" />
  <sodipodi:namedview
     id="base"
     pagecolor="#ffffff"
     bordercolor="#666666"
     borderopacity="1.0"
     inkscape:pageopacity="0.0"
     inkscape:pageshadow="2"
     inkscape:zoom="1.979899"
     inkscape:cx="505.53019"
     inkscape:cy="465.39139"
     inkscape:document-units="px"
     inkscape:current-layer="layer1"
     showgrid="false"
     inkscape:window-width="1278"
     inkscape:window-height="1003"
     inkscape:window-x="1280"
     inkscape:window-y="19"
     inkscape:window-maximized="1">
    <inkscape:grid
       type="axonomgrid"
       id="grid4446"
       units="mm"
       empspacing="5" />
  </sodipodi:namedview>
  <metadata
     id="metadata4443">
    <rdf:RDF>
      <cc:Work
         rdf:about="">
        <dc:format>image/svg+xml</dc:format>
        <dc:type
           rdf:resource="http://purl.org/dc/dcmitype/StillImage" />
        <dc:title />
      </cc:Work>
    </rdf:RDF>
  </metadata>
  <g
     inkscape:label="Layer 1"
     inkscape:groupmode="layer"
     id="layer1">
    <path
       style="fill:none;stroke:#000000;stroke-width:1;stroke-miterlimit:4;stroke-dasharray:none;stroke-opacity:1"
       d="m 276.17346,396.85039 0,35.43307 -30.68594,0 15.34297,26.57481 -30.68594,17.71653 30.68594,17.71654 -15.34297,26.5748 30.68594,0 0,35.43307 30.68594,-17.71653 15.34296,26.5748 15.34297,-26.5748 30.68594,17.71653 0,-35.43307 30.68594,0 -15.34297,-26.5748 30.68594,-17.71654 -30.68594,-17.71653 15.34297,-26.57481 -30.68594,0 0,-35.43307 -30.68594,17.71654 -15.34297,-26.5748 -15.34296,26.5748 -30.68594,-17.71654"
       id="path4992"
       inkscape:connector-curvature="0" />
    <path
       style="fill:none;stroke:#000000;stroke-width:1;stroke-miterlimit:4;stroke-dasharray:none;stroke-opacity:1"
       d="m 276.17346,520.86614 30.68594,-17.71653 0,35.43307"
       id="path3492"
       inkscape:connector-curvature="0" />
    <path
       style="fill:none;stroke:#000000;stroke-width:1;stroke-miterlimit:4;stroke-dasharray:none;stroke-opacity:1"
       d="m 337.54533,538.58268 0,-35.43307 30.68594,17.71653"
       id="path3494"
       inkscape:connector-curvature="0" />
    <path
       style="fill:none;stroke:#000000;stroke-width:1;stroke-miterlimit:4;stroke-dasharray:none;stroke-opacity:1"
       d="M 383.57424,494.29134 352.8883,476.5748 383.57424,458.85827"
       id="path3496"
       inkscape:connector-curvature="0" />
    <path
       style="fill:none;stroke:#000000;stroke-width:1;stroke-miterlimit:4;stroke-dasharray:none;stroke-opacity:1"
       d="M 368.23127,432.28346 337.54533,450 l 0,-35.43307"
       id="path3498"
       inkscape:connector-curvature="0" />
    <path
       style="fill:none;stroke:#000000;stroke-width:1;stroke-miterlimit:4;stroke-dasharray:none;stroke-opacity:1"
       d="m 306.8594,414.56693 0,35.43307 -30.68594,-17.71654"
       id="path3500"
       inkscape:connector-curvature="0" />
    <path
       style="fill:none;stroke:#000000;stroke-width:1;stroke-miterlimit:4;stroke-dasharray:none;stroke-opacity:1"
       d="m 260.83049,458.85827 c 3.06859,1.77165 30.68594,17.71653 30.68594,17.71653 l -30.68594,17.71654"
       id="path3502"
       inkscape:connector-curvature="0" />
    <path
       style="fill:none;stroke:#000000;stroke-width:1;stroke-miterlimit:4;stroke-dasharray:none;stroke-opacity:1"
       d="m 291.51643,476.5748 12.27437,0 12.27438,-10.62992 L 306.8594,450"
       id="path3504"
       inkscape:connector-curvature="0" />
    <path
       style="fill:none;stroke:#000000;stroke-width:1;stroke-miterlimit:4;stroke-dasharray:none;stroke-opacity:1"
       d="m 316.06518,465.94488 12.27437,0 L 337.54533,450"
       id="path3506"
       inkscape:connector-curvature="0" />
    <path
       style="fill:none;stroke:#000000;stroke-width:1;stroke-miterlimit:4;stroke-dasharray:none;stroke-opacity:1"
       d="m 328.33955,465.94488 12.27438,10.62992 12.27437,0"
       id="path3508"
       inkscape:connector-curvature="0" />
    <path
       style="fill:none;stroke:#000000;stroke-width:1;stroke-miterlimit:4;stroke-dasharray:none;stroke-opacity:1"
       d="m 340.61393,476.5748 -12.27438,10.62992 9.20578,15.94489"
       id="path3510"
       inkscape:connector-curvature="0" />
    <path
       style="fill:none;stroke:#000000;stroke-width:1;stroke-miterlimit:4;stroke-dasharray:none;stroke-opacity:1"
       d="m 328.33955,487.20472 -12.27437,0 -9.20578,15.94489"
       id="path3512"
       inkscape:connector-curvature="0" />
    <path
       style="fill:none;stroke:#000000;stroke-width:1;stroke-miterlimit:4;stroke-dasharray:none;stroke-opacity:1"
       d="M 316.06518,487.20472 303.7908,476.5748"
       id="path3514"
       inkscape:connector-curvature="0" />
    <path
       style="fill:none;stroke:#000000;stroke-width:1;stroke-miterlimit:4;stroke-dasharray:none;stroke-opacity:1"
       d="m 429.75059,503.14961 0,35.43307 -30.68594,0 15.34297,26.57481 -30.68594,17.71653 30.68594,17.71654 -15.34297,26.5748 30.68594,0 0,35.43307 30.68594,-17.71653 15.34296,26.5748 15.34297,-26.5748 21.5788,2.18082 9.10714,-19.89736 30.68594,0 -15.34297,-26.5748 30.68594,-17.71654 -30.68594,-17.71653 -2.69274,-15.68195 -12.65023,-10.89286 0,-35.43307 -30.68594,17.71654 -15.34297,-26.5748 -15.34296,26.5748 -30.68594,-17.71654"
       id="path4992-3"
       inkscape:connector-curvature="0"
       sodipodi:nodetypes="ccccccccccccccccccccccccc" />
    <path
       style="fill:none;stroke:#000000;stroke-width:1;stroke-miterlimit:4;stroke-dasharray:none;stroke-opacity:1"
       d="m 537.15137,600.59056 -4.25736,-1.10939 4.25736,-34.32368"
       id="path3496-5"
       inkscape:connector-curvature="0"
       sodipodi:nodetypes="ccc" />
    <path
       style="fill:none;stroke:#000000;stroke-width:1;stroke-miterlimit:4;stroke-dasharray:none;stroke-opacity:1"
       d="m 521.66097,627.16535 11.26418,-28.2199"
       id="path3662"
       inkscape:connector-curvature="0"
       sodipodi:nodetypes="cc" />
    <path
       style="fill:none;stroke:#000000;stroke-width:1;stroke-miterlimit:4;stroke-dasharray:none;stroke-opacity:1"
       d="M 490.97503,644.88189 521.66097,538.58268"
       id="path3664"
       inkscape:connector-curvature="0" />
    <path
       style="fill:none;stroke:#000000;stroke-width:1;stroke-miterlimit:4;stroke-dasharray:none;stroke-opacity:1"
       d="m 460.28909,644.88189 12.27438,-70.86614 18.41156,-53.14961"
       id="path3666"
       inkscape:connector-curvature="0" />
    <path
       style="fill:none;stroke:#000000;stroke-width:1;stroke-miterlimit:4;stroke-dasharray:none;stroke-opacity:1"
       d="m 414.26018,600.59055 21.48016,5.31496 -6.13719,21.25984"
       id="path3668"
       inkscape:connector-curvature="0" />
    <path
       style="fill:none;stroke:#000000;stroke-width:1;stroke-miterlimit:4;stroke-dasharray:none;stroke-opacity:1"
       d="m 435.74034,605.90551 9.20578,-15.94488 12.27438,-10.62992 15.34297,-5.31496"
       id="path3670"
       inkscape:connector-curvature="0" />
    <path
       style="fill:none;stroke:#000000;stroke-width:1;stroke-miterlimit:4;stroke-dasharray:none;stroke-opacity:1"
       d="m 460.28909,520.86614 -6.64227,28.70971 0.50508,13.80998 3.0686,15.94488"
       id="path3690"
       inkscape:connector-curvature="0"
       sodipodi:nodetypes="cccc" />
    <path
       style="fill:none;stroke:#000000;stroke-width:1;stroke-miterlimit:4;stroke-dasharray:none;stroke-opacity:1"
       d="m 414.26018,565.15748 15.5955,-1.25103 12.02185,13.65261 3.06859,12.40157"
       id="path3692"
       inkscape:connector-curvature="0"
       sodipodi:nodetypes="cccc" />
    <path
       style="fill:none;stroke:#000000;stroke-width:1;stroke-miterlimit:4;stroke-dasharray:none;stroke-opacity:1"
       d="M 441.87753,577.55906 454.1519,563.38583"
       id="path3694"
       inkscape:connector-curvature="0" />
    <path
       style="fill:none;stroke:#000000;stroke-width:1;stroke-miterlimit:4;stroke-dasharray:none;stroke-opacity:1"
       d="m 448.01472,549.2126 -9.20579,-1.77166 -6.13718,-7.08661 3.06859,8.85827 -3.06859,8.85827 6.13718,-7.08662 z"
       id="path3702"
       inkscape:connector-curvature="0" />
    <path
       style="fill:none;stroke:#000000;stroke-width:1;stroke-miterlimit:4;stroke-dasharray:none;stroke-opacity:1"
       d="m 448.01472,549.2126 6.26345,0.24476"
       id="path3704"
       inkscape:connector-curvature="0"
       sodipodi:nodetypes="cc" />
    <path
       style="fill:none;stroke:#000000;stroke-width:1;stroke-miterlimit:4;stroke-dasharray:none;stroke-opacity:1"
       d="m 429.60315,563.38583 3.0686,-5.31496"
       id="path3706"
       inkscape:connector-curvature="0" />
    <path
       style="fill:none;stroke:#000000;stroke-width:1;stroke-miterlimit:4;stroke-dasharray:none;stroke-opacity:1"
       d="m 429.60315,538.58268 3.0686,1.77165"
       id="path3708"
       inkscape:connector-curvature="0" />
    <path
       style="fill:none;stroke:#000000;stroke-width:1;stroke-miterlimit:4;stroke-dasharray:none;stroke-opacity:1"
       d="m 435.74034,549.2126 0,0 0.0409,0.0916 1.875,-0.0446 1.22768,-1.80804"
       id="path3710"
       inkscape:connector-curvature="0" />
    <path
       style="fill:none;stroke:#000000;stroke-width:1;stroke-miterlimit:4;stroke-dasharray:none;stroke-opacity:1"
       d="m 438.81696,551.04524 -1.22767,-1.78571"
       id="path3712"
       inkscape:connector-curvature="0" />
    <path
       style="fill:none;fill-rule:evenodd;stroke:#000000;stroke-width:1px;stroke-linecap:butt;stroke-linejoin:miter;stroke-opacity:1"
       d="m 415.67777,551.074 c 0.33672,-0.16835 0.74396,-0.23887 1.01015,-0.50507 0.18824,-0.18823 0.1335,-0.51952 0.25254,-0.75762 0.15449,-0.30896 0.51155,-0.32052 0.75762,-0.50507 0.19047,-0.14286 0.33671,-0.33672 0.50507,-0.50508 0.16836,-0.16836 0.33672,-0.33672 0.50508,-0.50507 0.0633,-0.0633 0.65569,-0.70893 0.75761,-0.50508 0.0842,0.16836 -0.67343,0.33672 -0.50507,0.25254 0.33672,-0.16836 0.64493,-0.41377 1.01015,-0.50508 0.16333,-0.0408 -0.0753,0.35449 0,0.50508 0.085,0.16999 0.69462,0.9477 0.75761,1.26269 0.0826,0.41272 -0.0825,0.84996 0,1.26269 0.0522,0.26103 0.20878,0.49504 0.25254,0.75761 0.057,0.34208 0,1.3496 0,1.76777"
       id="path3714"
       inkscape:connector-curvature="0" />
    <path
       style="fill:none;fill-rule:evenodd;stroke:#000000;stroke-width:1px;stroke-linecap:butt;stroke-linejoin:miter;stroke-opacity:1"
       d="m 438.15367,528.09303 c 0.5933,0.11781 1.0501,-0.98361 1.51522,-1.26269 0.32282,-0.19368 0.6833,-0.3183 1.01016,-0.50507 0.77589,-0.44337 0.85199,-0.7049 1.76776,-1.01016 0.0246,-0.008 1.23322,-0.007 1.2627,0 1.30037,0.3251 -0.46151,0.25877 1.26269,0.50508 0.33333,0.0476 0.70898,-0.15058 1.01015,0 0.15058,0.0753 -0.11905,0.38603 0,0.50508 0.41068,0.41068 0.53695,-0.40945 0.75761,0.25254 0.10648,0.31943 -0.15058,0.70898 0,1.01015 0.10648,0.21296 0.33672,0.33672 0.50508,0.50507 0.0842,0.0842 0.22919,0.13581 0.25254,0.25254 0.19642,0.9821 -0.14732,0.88389 0,1.76777 0.0683,0.41012 0.4027,0.81221 0.25254,1.26269 -0.0376,0.11294 -0.1993,0.14606 -0.25254,0.25254 -0.0377,0.0753 0.0376,0.17724 0,0.25254 -0.0532,0.10648 -0.1396,0.21489 -0.25254,0.25253 -0.15972,0.0532 -0.33672,0 -0.50508,0 -0.48855,0 -1.03635,-0.0599 -1.51523,0 -0.42591,0.0532 -0.83608,0.20514 -1.26269,0.25254 -0.33465,0.0372 -0.67801,-0.0553 -1.01015,0 -0.18567,0.031 -0.33031,0.18263 -0.50508,0.25254 -0.24715,0.0989 -0.49936,0.18798 -0.75761,0.25254 -0.15092,0.0377 -0.50508,-0.11288 -0.50508,0.25254 0,0.11904 0.1993,0.14606 0.25254,0.25254 0.0753,0.15058 -0.15058,0.42978 0,0.50507 0.15059,0.0753 0.38603,-0.11905 0.50508,0 0.0842,0.0842 -0.33672,0.16836 -0.25254,0.25254 0.11905,0.11905 0.38603,-0.11905 0.50508,0 0.0842,0.0842 -0.25254,0.13349 -0.25254,0.25254 0,0.57422 1.07527,0.0651 1.26269,0.25254 0.0842,0.0842 -0.25254,0.13349 -0.25254,0.25253 0,0.0842 0.16836,0 0.25254,0 1.67513,0 -0.35714,-0.11904 0.75761,0.25254 0.54847,0.18282 0.51643,-0.12911 1.01016,-0.25254 0.16333,-0.0408 0.34535,0.0532 0.50507,0 0.11294,-0.0376 0.14606,-0.19929 0.25254,-0.25253 0.0753,-0.0376 0.16836,0 0.25254,0 0.0842,0 0.16836,0 0.25254,0 0.58925,0 1.17851,0 1.76776,0 0.53342,0 0.44383,-0.0204 1.26269,0.25253 0.17858,0.0595 0.33031,0.18263 0.50508,0.25254 0.24716,0.0989 0.51952,0.13349 0.75761,0.25254 0.10648,0.0532 0.15349,0.1865 0.25254,0.25254 0.15662,0.10441 0.37198,0.11944 0.50508,0.25254 0.0595,0.0595 -0.16836,0 -0.25254,0"
       id="path3716"
       inkscape:connector-curvature="0" />
    <path
       style="fill:none;fill-rule:evenodd;stroke:#000000;stroke-width:1px;stroke-linecap:butt;stroke-linejoin:miter;stroke-opacity:1"
       d="m 464.41763,532.89126 c 1.17349,-0.29337 0.66307,-0.25254 1.51523,-0.25254 0.25254,0 0.50998,-0.0495 0.75762,0 1.01624,0.20325 0.11603,0.18428 0.75761,0.50508 0.0753,0.0376 0.19301,-0.0595 0.25254,0 0.0595,0.0595 -0.0467,0.18249 0,0.25254 0.13207,0.1981 0.373,0.30696 0.50507,0.50507 0.0467,0.07 -0.0266,0.17268 0,0.25254 0.0595,0.17857 0.19302,0.3265 0.25254,0.50508 0.0266,0.0799 -0.0204,0.17087 0,0.25253 0.0646,0.25825 0.20033,0.49659 0.25254,0.75762 0.0317,0.15854 -0.0625,1.13767 0,1.26269 0.0532,0.10648 0.25254,0.13349 0.25254,0.25254 0,0.54535 -1.59919,0.084 -1.76777,0.25254 -0.0842,0.0842 0.1993,0.14605 0.25254,0.25253 0.0753,0.15059 -0.0753,0.3545 0,0.50508 0.0532,0.10648 0.21489,0.1396 0.25254,0.25254 0.0532,0.15972 -0.0753,0.35449 0,0.50507 0.10648,0.21296 0.373,0.30697 0.50507,0.50508 0.0467,0.07 -0.0266,0.17268 0,0.25254 0.0595,0.17857 0.19302,0.3265 0.25254,0.50507 0.0266,0.0799 -0.0467,0.1825 0,0.25254 0.13207,0.19811 0.37301,0.30697 0.50508,0.50508 0.0934,0.14008 -0.0532,0.34536 0,0.50508 0.0595,0.17857 0.19301,0.3265 0.25254,0.50507 0.0502,0.15058 0,1.27055 0,1.51523 0,0.0613 0.008,0.74949 0,0.75761 -0.1331,0.1331 -0.37198,0.11944 -0.50508,0.25254 -0.0595,0.0595 0,0.16836 0,0.25254 -0.0842,0.0842 -0.15348,0.1865 -0.25254,0.25254 -0.15662,0.10441 -0.33672,0.16836 -0.50507,0.25254 -0.16836,0.0842 -0.32247,0.20688 -0.50508,0.25254 -0.16333,0.0408 -0.33999,-0.033 -0.50508,0 -0.26103,0.0522 -0.49658,0.20033 -0.75761,0.25253 -0.46227,0.0925 -1.54346,-0.20269 -1.76777,-0.25253 -0.33881,-0.0753 -0.66656,-0.20346 -1.01015,-0.25254 -0.25,-0.0357 -0.50761,0.0357 -0.75761,0 -0.83494,-0.11928 -0.89378,-0.19435 -1.51523,-0.50508"
       id="path3718"
       inkscape:connector-curvature="0" />
    <path
       style="fill:none;fill-rule:evenodd;stroke:#000000;stroke-width:1px;stroke-linecap:butt;stroke-linejoin:miter;stroke-opacity:1"
       d="m 440.17397,558.14507 c 0,0.75762 0,1.51523 0,2.27285 0,0.0842 0,0.16835 0,0.25253 0,0.0842 -0.0376,0.17725 0,0.25254 0.0532,0.10648 0.15349,0.1865 0.25254,0.25254 0.15662,0.10441 0.32246,0.20689 0.50508,0.25254 0.22893,0.0572 0.96932,0 1.26269,0 0.16836,0 0.34174,-0.0408 0.50507,0 0.18261,0.0456 0.32247,0.20688 0.50508,0.25254 0.19205,0.048 1.05122,0 1.26269,0"
       id="path3720"
       inkscape:connector-curvature="0" />
    <path
       style="fill:none;fill-rule:evenodd;stroke:#000000;stroke-width:1px;stroke-linecap:butt;stroke-linejoin:miter;stroke-opacity:1"
       d="m 443.45697,558.65015 c -0.001,0.6348 -0.38489,1.16683 -0.50508,1.76777 -0.033,0.16509 0.0753,0.35449 0,0.50507 -0.10648,0.21296 -0.41665,0.28401 -0.50508,0.50508 -0.0938,0.23447 0.0495,0.50998 0,0.75761 -0.0738,0.36915 -0.43124,0.641 -0.50507,1.01016 -0.0495,0.24763 0,0.50507 0,0.75761 0,0.58926 0,1.17851 0,1.76777 0,0.16836 0.0408,0.34174 0,0.50507 -0.0456,0.18261 -0.16836,0.33672 -0.25254,0.50508"
       id="path3722"
       inkscape:connector-curvature="0" />
    <path
       style="fill:none;fill-rule:evenodd;stroke:#000000;stroke-width:1px;stroke-linecap:butt;stroke-linejoin:miter;stroke-opacity:1"
       d="m 417.44554,588.95473 c 0.16836,0.0842 0.33672,0.16833 0.50508,0.25253 0.16835,0 0.34535,-0.0532 0.50507,0 0.28794,0.096 0.30054,0.65729 0.75762,0.50508 0.32927,0.10976 0.68088,0.14278 1.01015,0.25254 0.6047,0.20157 1.20854,0.8983 1.76777,1.01015 0.24763,0.0495 0.50507,0 0.75761,0 0.16836,0 0.34536,0.0532 0.50508,0 0.17857,-0.0595 0.34845,-0.14813 0.50507,-0.25254 0.0991,-0.066 0.14606,-0.19934 0.25254,-0.25254 0.0753,-0.0376 0.33674,0 0.25254,0 -1.14963,0 -0.0144,0.11905 -0.75762,-0.25253 -0.0753,-0.0376 -0.17723,0.0376 -0.25253,0 -0.10648,-0.0532 -0.16834,-0.16834 -0.25254,-0.25254 -0.16836,-0.16836 -0.33672,-0.33672 -0.50508,-0.50508 -0.46978,-0.46978 -0.69158,-0.62554 -1.01015,-1.26269 -0.11905,-0.23809 -0.15364,-0.51045 -0.25254,-0.75761 -0.0699,-0.17477 -0.22154,-0.31941 -0.25254,-0.50508 -0.0553,-0.33214 0,-0.67344 0,-1.01015 0,-0.16836 -0.033,-0.33999 0,-0.50508 0.16311,-0.81551 0.5667,-1.28122 1.01016,-2.0203 0.0687,1.73181 1.39943,-0.81552 2.0203,-0.50508 0.10648,0.0532 0.1396,0.21489 0.25254,0.25254 0.15972,0.0532 0.34174,-0.0408 0.50507,0 0.18262,0.0457 0.32247,0.20688 0.50508,0.25254 0.16333,0.0408 0.34536,-0.0532 0.50508,0 0.11294,0.0376 0.1358,0.22919 0.25254,0.25253 0.33017,0.066 0.67681,-0.0476 1.01015,0 0.26352,0.0376 0.49409,0.2149 0.75761,0.25254 0.33334,0.0476 0.67682,-0.0476 1.01016,0 0.26352,0.0376 0.49409,0.21489 0.75761,0.25254 2.23361,0.31909 -0.0661,-0.35874 1.76777,0.25254"
       id="path3724"
       inkscape:connector-curvature="0" />
    <path
       style="fill:none;fill-rule:evenodd;stroke:#000000;stroke-width:1px;stroke-linecap:butt;stroke-linejoin:miter;stroke-opacity:1"
       d="m 449.51788,608.90524 c -1.16949,-0.4678 -1.28377,-0.60242 -2.52538,-0.75762 -0.25059,-0.0313 -0.50508,0 -0.75761,0 -0.58926,0 -1.17851,0 -1.76777,0 -0.33536,0 -1.54287,-0.0562 -1.76777,0 -0.11549,0.0289 -0.13704,0.22367 -0.25254,0.25254 -0.25253,0 -0.50507,0 -0.75761,0 -0.0842,0.0842 -0.1396,0.21489 -0.25254,0.25254 -0.15972,0.0532 -0.35449,-0.0753 -0.50507,0 -0.0753,0.0376 0.0595,0.19301 0,0.25254 -0.1331,0.1331 -0.37198,0.11944 -0.50508,0.25254 -0.9474,0.9474 -0.15978,0.46557 -0.75762,1.26269 -0.14285,0.19047 -0.39859,0.29211 -0.50507,0.50507 -0.0842,0.16836 0.0421,0.54717 0,0.75762 -0.0681,0.34034 -0.19548,0.66779 -0.25254,1.01015 -0.0277,0.16607 0.033,0.33999 0,0.50508 -0.0522,0.26103 -0.25254,0.49141 -0.25254,0.75761 0,0.11905 0.22367,0.13705 0.25254,0.25254 0.0613,0.245 -0.0612,0.51262 0,0.75761 0.0289,0.1155 0.1993,0.14606 0.25254,0.25254 0.0376,0.0753 0,0.16836 0,0.25254 0.0842,0.16836 0.14813,0.34846 0.25254,0.50508 0.88264,1.32396 -0.58926,-1.09434 0.75761,0.25253 0.0842,0.0842 -0.30578,0.14606 -0.25254,0.25254 0.22612,0.45223 1.39711,0.15988 1.76777,0.25254 0.36522,0.0913 0.65301,0.38603 1.01015,0.50508 0.14248,0.0475 0.59167,0 0.75762,0 0.16836,0 0.35449,0.0753 0.50507,0 0.0753,-0.0376 0,-0.16836 0,-0.25254 0,-0.33672 0,-0.67344 0,-1.01015 0,-0.16836 0.0408,-0.34175 0,-0.50508 -0.0945,-0.37799 -0.62182,-0.99112 -0.75761,-1.26269 -0.11905,-0.2381 -0.13349,-0.51952 -0.25254,-0.75762 -0.13573,-0.27147 -0.36934,-0.48614 -0.50508,-0.75761 -0.11904,-0.2381 -0.13349,-0.51952 -0.25253,-0.75761 -0.31858,-0.63715 -0.54037,-0.79291 -1.01016,-1.2627 -0.0842,-0.0842 -0.16836,-0.16835 -0.25253,-0.25253 -0.0842,-0.0842 -0.14606,-0.1993 -0.25254,-0.25254 -0.0921,-0.046 -1.11718,0 -1.26269,0"
       id="path3726"
       inkscape:connector-curvature="0" />
    <path
       style="fill:none;fill-rule:evenodd;stroke:#000000;stroke-width:1px;stroke-linecap:butt;stroke-linejoin:miter;stroke-opacity:1"
       d="m 490.93414,574.81259 c 0.42089,-0.16836 0.85723,-0.30235 1.26269,-0.50508 0.78352,-0.39176 -0.69492,-0.53219 1.26269,-0.25253 0.26352,0.0376 0.49409,0.21489 0.75761,0.25253 0.5,0.0714 1.01015,0 1.51523,0 0.0842,0 0.19302,-0.0595 0.25254,0 0.18823,0.18823 -0.18798,0.49937 -0.25254,0.75762 -0.0817,0.32666 0.066,0.67997 0,1.01015 -0.31746,1.5873 -0.21003,-0.14876 -0.75761,1.76777 -0.0694,0.24282 0.0613,0.51261 0,0.75761 -0.10995,0.43979 -0.40674,0.82017 -0.50508,1.26269 -0.073,0.3287 0.0372,0.6755 0,1.01015 -0.0474,0.42661 -0.20514,0.83609 -0.25254,1.2627 -0.0372,0.33465 0.0554,0.67801 0,1.01015 -0.0309,0.18567 -0.19301,0.3265 -0.25254,0.50507 -0.0266,0.0799 0,0.16836 0,0.25254 0,0.16836 0,0.33672 0,0.50508"
       id="path3728"
       inkscape:connector-curvature="0" />
    <path
       style="fill:none;fill-rule:evenodd;stroke:#000000;stroke-width:1px;stroke-linecap:butt;stroke-linejoin:miter;stroke-opacity:1"
       d="m 492.44937,580.11589 c 0.58036,-0.14509 1.15404,-0.37528 1.76776,-0.25254 0.18458,0.0369 0.32247,0.20689 0.50508,0.25254 0.16333,0.0408 0.33999,-0.033 0.50507,0 0.26103,0.0522 0.49659,0.20033 0.75762,0.25254 0.33018,0.066 0.67343,0 1.01015,0"
       id="path3730"
       inkscape:connector-curvature="0" />
    <path
       style="fill:none;fill-rule:evenodd;stroke:#000000;stroke-width:1px;stroke-linecap:butt;stroke-linejoin:miter;stroke-opacity:1"
       d="m 518.96587,587.69203 c -0.72326,0.14466 -1.19627,0.12408 -1.76777,0.50508 -0.099,0.066 -0.15348,0.1865 -0.25254,0.25254 -0.15661,0.10441 -0.37197,0.11944 -0.50507,0.25254 -0.1331,0.1331 -0.11944,0.37197 -0.25254,0.50507 -0.30759,0.30759 -0.56422,0.1183 -0.75761,0.50508 -0.0376,0.0753 0,0.16836 0,0.25254 0,0.25254 0.0495,0.50998 0,0.75761 -0.0369,0.18458 -0.21563,0.3205 -0.25254,0.50508 -0.0495,0.24763 0,0.50507 0,0.75761 0,0.91881 -0.0589,1.33852 0.25254,2.27285 0.0595,0.17857 0.20688,0.32246 0.25253,0.50507 0.0408,0.16333 -0.0625,0.34876 0,0.50508 0.11273,0.2818 0.34892,0.49735 0.50508,0.75761 0.19369,0.32282 0.2792,0.70899 0.50508,1.01016 0.28571,0.38095 0.74601,0.61393 1.01015,1.01015 0.0467,0.07 -0.07,0.20584 0,0.25254 0.25254,0.0842 0.50508,0.16835 0.75761,0.25253 0,0.0842 -0.0595,0.19302 0,0.25254 0.1331,0.1331 0.4209,0.0842 0.50508,0.25254 0.0532,0.10648 -0.25254,0.13349 -0.25254,0.25254 0,0.2662 0.13349,0.51952 0.25254,0.75761 0.0532,0.10648 0.16836,0.16836 0.25254,0.25254 0.16836,0.16836 0.35634,0.31916 0.50507,0.50508 0.18961,0.237 0.34892,0.49735 0.50508,0.75761 0.82723,1.37872 -0.19414,-0.32987 0.25254,1.01015 0.0376,0.11294 0.1865,0.15349 0.25254,0.25254 0.29018,0.43528 0.25253,0.38174 0.25253,0.75762 0,0.0842 0.0595,0.19301 0,0.25254 -0.13309,0.13309 -0.34845,0.14812 -0.50507,0.25253 -0.0991,0.066 -0.16836,0.16836 -0.25254,0.25254 -0.25254,0.0842 -0.51952,0.13349 -0.75761,0.25254 -0.10648,0.0532 -0.1396,0.21489 -0.25254,0.25254 -0.13922,0.0464 -1.30092,0 -1.51523,0 -0.51994,0 -1.3116,0.076 -1.76777,0 -0.26643,-0.0444 -1.17099,-0.7026 -1.26269,-0.75762 -0.4982,-0.29892 -0.79728,-0.2922 -1.26269,-0.75761 -0.21462,-0.21462 -0.31547,-0.52061 -0.50508,-0.75762 -0.14873,-0.18592 -0.33671,-0.33671 -0.50507,-0.50507 -0.16836,-0.16836 -0.33672,-0.33672 -0.50508,-0.50508 -0.0842,-0.16836 -0.11944,-0.37198 -0.25254,-0.50507 -0.0595,-0.0595 -0.17724,0.0376 -0.25253,0 -0.31207,-0.15604 -0.25254,-0.24383 -0.25254,-0.50508 0,-0.311 -0.0376,-0.46743 0.25254,-0.75762 0.0595,-0.0595 0.18249,0.0467 0.25253,0 0.19811,-0.13207 0.29212,-0.39859 0.50508,-0.50507 0.15058,-0.0753 0.34174,0.0408 0.50508,0 0.37798,-0.0945 0.99111,-0.62183 1.26269,-0.75762 0.23809,-0.11904 0.51294,-0.14767 0.75761,-0.25253 0.34602,-0.1483 0.65301,-0.38603 1.01015,-0.50508 1.1552,-0.38507 -0.26167,0.66208 1.26269,-0.25254 0.20417,-0.1225 0.30092,-0.38258 0.50508,-0.50507 0.22826,-0.13696 0.51952,-0.1335 0.75762,-0.25254 0.10647,-0.0532 0.16835,-0.16836 0.25253,-0.25254 0.51604,-0.51604 0.48869,-0.84291 0.75762,-1.51523 0.0699,-0.17477 0.20688,-0.32247 0.25254,-0.50508 0.0612,-0.24499 -0.0799,-0.51803 0,-0.75761 0.0595,-0.17857 0.20688,-0.32247 0.25253,-0.50508 0.004,-0.0143 -0.0312,-0.9633 0,-1.01015 0.19349,-0.29023 0.63629,-0.36399 0.50508,-0.75761 -0.0595,-0.17858 -0.20689,-0.32247 -0.25254,-0.50508 -0.0408,-0.16333 0.0934,-0.36499 0,-0.50508 -0.10441,-0.15661 -0.43517,-0.0778 -0.50507,-0.25253 -1.01016,-2.52539 0.50507,0 0,-1.51523 -0.26451,-0.79352 -0.61863,-1.25252 -1.26269,-1.76777 -0.14699,-0.11759 -0.33672,-0.16836 -0.50508,-0.25254"
       id="path3732"
       inkscape:connector-curvature="0" />
    <path
       style="fill:none;fill-rule:evenodd;stroke:#000000;stroke-width:1px;stroke-linecap:butt;stroke-linejoin:miter;stroke-opacity:1"
       d="m 499.52043,582.38873 c 0.50508,0.50508 1.0767,0.95141 1.51523,1.51523 0.16343,0.21013 0.0863,0.54975 0.25254,0.75762 0.1896,0.237 0.543,0.29046 0.75761,0.50507 0.0595,0.0595 -0.0376,0.17725 0,0.25254 0.0441,0.0882 0.66653,0.70296 0.75762,0.75762 0.32281,0.19368 0.69692,0.29625 1.01015,0.50507 0.19811,0.13207 0.30091,0.38258 0.50508,0.50508 0.22826,0.13696 0.51045,0.15367 0.75761,0.25254 0.17477,0.0699 0.33672,0.16835 0.50508,0.25253 0.16836,0.0842 0.34846,0.14813 0.50507,0.25254 0.0991,0.066 0.14606,0.1993 0.25254,0.25254 0.17733,0.0887 0.83283,-0.0887 1.01016,0 -0.22448,0.22448 -0.44896,0.2806 0,0.50508 0.15058,0.0753 0.34535,-0.0532 0.50507,0 0.46202,0.154 0.68508,0.43253 1.01015,0.75761 0.0842,0.0842 0.14606,0.1993 0.25254,0.25254 0.0753,0.0376 0.17725,-0.0376 0.25254,0 0.10648,0.0532 0.15348,0.1865 0.25254,0.25254 0.15662,0.10441 0.34846,0.14812 0.50507,0.25254 0.0991,0.066 0.14606,0.19929 0.25254,0.25253 0.0753,0.0376 0.19302,-0.0595 0.25254,0 0.1331,0.1331 0.11944,0.37198 0.25254,0.50508 0.0595,0.0595 0.17725,-0.0376 0.25254,0 0.28951,0.14476 0.35128,0.52692 0.50507,0.75761 0.38679,0.58018 0.14425,-0.10828 0.75762,0.50508 0.0595,0.0595 -0.0377,0.17725 0,0.25254 0.0532,0.10648 0.1993,0.14606 0.25254,0.25254 0.0376,0.0753 -0.0376,0.17724 0,0.25254 0.0532,0.10647 0.19929,0.14605 0.25253,0.25253 0.37159,0.74317 -0.58502,-0.33248 0.25254,0.50508"
       id="path3734"
       inkscape:connector-curvature="0" />
    <path
       style="fill:none;fill-rule:evenodd;stroke:#000000;stroke-width:1px;stroke-linecap:butt;stroke-linejoin:miter;stroke-opacity:1"
       d="m 467.44809,551.32654 c 0,1.01016 0,2.02031 0,3.03046 0,0.25254 -0.0357,0.50761 0,0.75761 0.0491,0.3436 0.20345,0.66657 0.25254,1.01016 0.0357,0.25 0,0.50507 0,0.75761 0,0.33672 0.0476,0.67682 0,1.01015 -0.0376,0.26353 -0.20033,0.49659 -0.25254,0.75762 -0.066,0.33018 0,0.67343 0,1.01015 0,0.67344 0,1.34687 0,2.02031 0,0.21431 -0.0464,1.37601 0,1.51523 0.0377,0.11293 0.21489,0.13959 0.25254,0.25253 0.0453,0.13577 0,0.79634 0,1.01016 0,1.01015 0,2.0203 0,3.03045 0,0.33672 0,0.67344 0,1.01016 0,0.16835 -0.0532,0.34535 0,0.50507 0.0595,0.17857 0.25254,0.31685 0.25254,0.50508 0,0.18823 -0.19302,0.3265 -0.25254,0.50507 -0.0807,0.24199 0.078,1.02874 0,1.2627 -0.0376,0.11293 -0.21489,0.1396 -0.25254,0.25253 -0.0532,0.15972 0,0.33672 0,0.50508 0,0.29337 0.0572,1.03375 0,1.26269 -0.0456,0.18261 -0.20689,0.32247 -0.25254,0.50508 -0.0408,0.16333 0.033,0.33998 0,0.50507 -0.0522,0.26103 -0.20033,0.49659 -0.25254,0.75762 -0.033,0.16509 0.0408,0.34174 0,0.50507 -0.0457,0.18261 -0.20688,0.32247 -0.25253,0.50508 -0.0408,0.16333 0.0753,0.35449 0,0.50508 -0.10648,0.21296 -0.37301,0.30697 -0.50508,0.50507 -0.0467,0.07 0.0266,0.17268 0,0.25254 -0.7154,1.4308 0.0941,-0.37646 -0.25254,1.01015 0.15221,0.45708 -0.4091,0.46968 -0.50508,0.75762 -0.10647,0.31944 0.15059,0.70898 0,1.01015 -0.10647,0.21296 -0.373,0.30697 -0.50507,0.50508 -0.0467,0.07 0,0.16836 0,0.25253 -0.0842,0.16836 -0.11944,0.37198 -0.25254,0.50508 -0.1331,0.1331 -0.4209,0.0842 -0.50508,0.25254 -0.0532,0.10648 0.25254,0.13349 0.25254,0.25254 0,0.91371 -0.31283,0.18087 -0.50507,0.75761 -0.0532,0.15972 0.0753,0.35449 0,0.50508 -0.10648,0.21296 -0.3986,0.29212 -0.50508,0.50507 -0.10102,0.20203 0.10101,0.55559 0,0.75762 -0.0532,0.10648 -0.1993,0.14606 -0.25254,0.25254 -0.0376,0.0753 0,0.16836 0,0.25253 -0.16836,0.16836 -0.373,0.30697 -0.50507,0.50508 -0.0934,0.14008 0.0753,0.35449 0,0.50508 -0.0532,0.10648 -0.2149,0.1396 -0.25254,0.25254 -0.0532,0.15971 0.0753,0.35449 0,0.50507 -0.10648,0.21296 -0.3986,0.29212 -0.50508,0.50508 -0.10101,0.20203 0.10102,0.55558 0,0.75761 -0.0532,0.10648 -0.1993,0.14606 -0.25254,0.25254 -0.11904,0.2381 -0.15367,0.51046 -0.25254,0.75762 -0.13981,0.34953 -0.36526,0.66061 -0.50507,1.01015 -0.62413,1.56031 0.0872,0.0782 -0.50508,1.26269 -0.0842,0.16836 -0.1396,0.35449 -0.25254,0.50507 -0.14285,0.19048 -0.38257,0.30092 -0.50507,0.50508 -0.13696,0.22826 -0.18798,0.49936 -0.25254,0.75762 -0.0204,0.0817 0.0467,0.18249 0,0.25253 -0.13207,0.19811 -0.36222,0.3146 -0.50508,0.50508 -0.22587,0.30117 -0.29625,0.69692 -0.50507,1.01015 -0.066,0.0991 -0.1993,0.14606 -0.25254,0.25254 -0.0376,0.0753 0.0595,0.19301 0,0.25254 -0.1331,0.1331 -0.37198,0.11944 -0.50508,0.25254 -0.0595,0.0595 0.0433,0.18035 0,0.25253 -0.21655,0.36092 -0.50507,0.67344 -0.75761,1.01016 -0.50508,0.67343 -0.97633,1.37362 -1.51523,2.0203 -0.15243,0.18291 -0.33672,0.33672 -0.50508,0.50508 -0.25254,0.25254 -0.48325,0.52898 -0.75761,0.75761 -0.23317,0.19431 -0.543,0.29046 -0.75762,0.50508 -0.29761,0.29762 -0.49468,0.68149 -0.75761,1.01015 -0.50508,0.63135 0,-0.25254 -0.75761,0.75762 -0.11294,0.15058 -0.11944,0.37197 -0.25254,0.50507 -0.21462,0.21462 -0.50508,0.33672 -0.75762,0.50508"
       id="path3736"
       inkscape:connector-curvature="0" />
    <path
       style="fill:none;fill-rule:evenodd;stroke:#000000;stroke-width:1px;stroke-linecap:butt;stroke-linejoin:miter;stroke-opacity:1"
       d="m 439.41636,563.70091 c -0.4733,0.37494 -0.13648,1.30353 -0.25254,1.76777 -0.0289,0.11549 -0.21489,0.1396 -0.25254,0.25254 -0.0532,0.15972 0.0532,0.34535 0,0.50507 -0.11905,0.35715 -0.35678,0.66413 -0.50508,1.01016 -0.10486,0.24467 -0.15367,0.51045 -0.25253,0.75761 -0.0699,0.17477 -0.16836,0.33672 -0.25254,0.50508 -0.0842,0.16835 -0.14813,0.34845 -0.25254,0.50507 -0.066,0.0991 -0.1865,0.15349 -0.25254,0.25254 -0.20882,0.31324 -0.26008,0.72432 -0.50507,1.01015 -0.38738,0.45194 -0.8418,0.8418 -1.2627,1.26269 -0.16835,0.16836 -0.35633,0.31916 -0.50507,0.50508 -0.1896,0.237 -0.29046,0.543 -0.50508,0.75761 -0.38114,0.38114 -0.85344,0.65937 -1.26269,1.01016 -0.18077,0.15495 -0.33672,0.33671 -0.50507,0.50507 -0.25254,0.25254 -0.53451,0.47874 -0.75762,0.75762 -0.11759,0.14698 -0.1396,0.35449 -0.25254,0.50507 -0.14285,0.19048 -0.33671,0.33672 -0.50507,0.50508 -0.0842,0.0842 -0.15349,0.1865 -0.25254,0.25254 -0.23069,0.15379 -0.61286,0.21556 -0.75762,0.50507 -0.0376,0.0753 0.0165,0.17 0,0.25254 -0.0681,0.34034 -0.13067,0.68517 -0.25253,1.01016 -0.13219,0.35249 -0.38603,0.653 -0.50508,1.01015 -0.0532,0.15972 0.0532,0.34535 0,0.50507 -0.0376,0.11294 -0.1993,0.14606 -0.25254,0.25254 -0.0376,0.0753 0,0.16836 0,0.25254 -0.16836,0.16836 -0.33672,0.33672 -0.50507,0.50508"
       id="path3738"
       inkscape:connector-curvature="0" />
    <path
       style="fill:none;fill-rule:evenodd;stroke:#000000;stroke-width:1px;stroke-linecap:butt;stroke-linejoin:miter;stroke-opacity:1"
       d="m 425.7793,545.01309 c 0.33671,0 0.68349,0.0817 1.01015,0 0.0817,-0.0204 -0.0595,-0.19301 0,-0.25254 0.21462,-0.21461 0.543,-0.29046 0.75761,-0.50508 0.1331,-0.13309 0.11944,-0.37197 0.25254,-0.50507 0.21462,-0.21462 0.543,-0.29046 0.75762,-0.50508 0.0595,-0.0595 -0.0467,-0.18249 0,-0.25254 0.13207,-0.1981 0.36222,-0.3146 0.50507,-0.50507 0.11294,-0.15059 0.14813,-0.34846 0.25254,-0.50508 0.066,-0.099 0.16836,-0.16836 0.25254,-0.25254 0.0842,-0.16836 0.14813,-0.34846 0.25254,-0.50507 0.066,-0.0991 0.1993,-0.14606 0.25254,-0.25254 0.0376,-0.0753 -0.0376,-0.17725 0,-0.25254 0.0532,-0.10648 0.16835,-0.16836 0.25253,-0.25254 0.0842,-0.0842 0.16836,-0.16836 0.25254,-0.25254 0.4209,-0.42089 0.89085,-0.79788 1.26269,-1.26269 0.11759,-0.14698 0.13495,-0.35809 0.25254,-0.50507 0.37184,-0.46481 0.84179,-0.8418 1.26269,-1.26269 0.16836,-0.16836 0.36222,-0.3146 0.50508,-0.50508 0.11294,-0.15058 0.14812,-0.34846 0.25254,-0.50508 0.38678,-0.58017 0.14425,0.10829 0.75761,-0.50507 0.21462,-0.21462 0.26227,-0.57551 0.50508,-0.75762 0.13468,-0.10101 0.34535,0.0532 0.50507,0 0.11294,-0.0376 0.1396,-0.21489 0.25254,-0.25253 0.15972,-0.0532 0.42978,0.15058 0.50508,0 0.0842,-0.16836 -0.33672,-0.33672 -0.25254,-0.50508 0.0753,-0.15059 0.36499,0.0934 0.50508,0 0.15661,-0.10441 0.11943,-0.37198 0.25253,-0.50508 0.1331,-0.1331 0.34846,-0.14812 0.50508,-0.25253 0.099,-0.066 0.1396,-0.2149 0.25254,-0.25254 0.15972,-0.0532 0.38603,0.11904 0.50507,0 0.0842,-0.0842 -0.25253,-0.13349 -0.25253,-0.25254 0,-0.11905 0.19929,-0.14606 0.25253,-0.25254 0.0376,-0.0753 -0.0595,-0.19301 0,-0.25254 0.1331,-0.1331 0.4209,-0.0842 0.50508,-0.25254 0.0532,-0.10648 -0.30578,-0.14605 -0.25254,-0.25253 0.65566,-1.31133 0.50508,0.81535 0.50508,-0.75762"
       id="path3740"
       inkscape:connector-curvature="0" />
  </g>
</svg>
